<svg version="1.1" id="Layer_1" xmlns="http://www.w3.org/2000/svg" xmlns:xlink="http://www.w3.org/1999/xlink" x="0px" y="0px"
	 width="100%" viewBox="0 0 128 128" enable-background="new 0 0 128 128" xml:space="preserve">
<path fill="#000000" opacity="0" stroke="none" 
	d="
M83.000000,129.000000 
	C55.333332,129.000000 28.166666,129.000000 1.000000,129.000000 
	C1.000000,86.333336 1.000000,43.666668 1.000000,1.000000 
	C43.666668,1.000000 86.333336,1.000000 129.000000,1.000000 
	C129.000000,43.666668 129.000000,86.333336 129.000000,129.000000 
	C113.833336,129.000000 98.666664,129.000000 83.000000,129.000000 
M83.223114,120.006256 
	C86.404221,117.552017 90.607201,115.723076 92.566452,112.521179 
	C97.570465,104.343452 102.667542,95.928268 105.750191,86.930672 
	C112.128593,68.313461 117.347992,49.292202 122.782898,30.362135 
	C124.983368,22.697767 122.965988,18.070370 116.487801,17.385717 
	C106.174484,16.295746 95.699089,15.732183 85.360222,16.265053 
	C79.058662,16.589836 72.835648,19.000202 69.861969,26.079018 
	C68.334312,29.715586 66.606720,33.344814 69.370758,36.490616 
	C72.108780,39.606808 76.209824,39.536781 80.214081,38.407871 
	C84.926147,37.079399 89.709747,36.004612 94.519485,34.805576 
	C92.264259,58.745472 87.334076,81.493210 79.228371,103.562065 
	C79.384392,95.188736 80.301071,86.932167 80.913254,78.653084 
	C81.044449,76.878716 80.072906,75.022812 79.609360,73.204468 
	C77.538849,73.842361 75.139786,74.011284 73.451180,75.194298 
	C62.561584,82.823387 60.322994,99.637466 66.022072,110.943329 
	C70.413971,119.656006 75.531967,122.342453 83.223114,120.006256 
M44.411697,41.000000 
	C32.135563,39.676037 14.426640,52.729038 11.600871,64.776215 
	C10.070664,71.299988 10.894003,77.898216 15.086587,80.477417 
	C18.002298,82.271103 21.352310,83.358826 23.895796,84.489624 
	C21.544617,85.510025 18.514990,86.559082 15.749473,88.086365 
	C11.423692,90.475296 7.847871,98.343391 9.062013,102.877678 
	C10.405083,107.893486 14.599011,110.325859 19.131540,110.844627 
	C30.052868,112.094627 40.100372,109.406654 48.485470,101.940140 
	C50.824688,99.857185 53.084942,97.588593 54.943687,95.080734 
	C61.160011,86.693527 62.133133,75.574425 46.349377,71.512840 
	C53.682652,69.856506 60.747738,60.948299 59.987431,54.316940 
	C59.068352,46.300774 53.325336,41.088093 44.411697,41.000000 
z"/>
<path fill="#FFFFFF" opacity="1.000000" stroke="none" 
	d="
M82.814560,120.053741 
	C75.531967,122.342453 70.413971,119.656006 66.022072,110.943329 
	C60.322994,99.637466 62.561584,82.823387 73.451180,75.194298 
	C75.139786,74.011284 77.538849,73.842361 79.609360,73.204468 
	C80.072906,75.022812 81.044449,76.878716 80.913254,78.653084 
	C80.301071,86.932167 79.384392,95.188736 79.228371,103.562065 
	C87.334076,81.493210 92.264259,58.745472 94.519485,34.805576 
	C89.709747,36.004612 84.926147,37.079399 80.214081,38.407871 
	C76.209824,39.536781 72.108780,39.606808 69.370758,36.490616 
	C66.606720,33.344814 68.334312,29.715586 69.861969,26.079018 
	C72.835648,19.000202 79.058662,16.589836 85.360222,16.265053 
	C95.699089,15.732183 106.174484,16.295746 116.487801,17.385717 
	C122.965988,18.070370 124.983368,22.697767 122.782898,30.362135 
	C117.347992,49.292202 112.128593,68.313461 105.750191,86.930672 
	C102.667542,95.928268 97.570465,104.343452 92.566452,112.521179 
	C90.607201,115.723076 86.404221,117.552017 82.814560,120.053741 
z"/>
<path fill="#FFFFFF" opacity="1.000000" stroke="none" 
	d="
M44.863663,41.000000 
	C53.325336,41.088093 59.068352,46.300774 59.987431,54.316940 
	C60.747738,60.948299 53.682652,69.856506 46.349377,71.512840 
	C62.133133,75.574425 61.160011,86.693527 54.943687,95.080734 
	C53.084942,97.588593 50.824688,99.857185 48.485470,101.940140 
	C40.100372,109.406654 30.052868,112.094627 19.131540,110.844627 
	C14.599011,110.325859 10.405083,107.893486 9.062013,102.877678 
	C7.847871,98.343391 11.423692,90.475296 15.749473,88.086365 
	C18.514990,86.559082 21.544617,85.510025 23.895796,84.489624 
	C21.352310,83.358826 18.002298,82.271103 15.086587,80.477417 
	C10.894003,77.898216 10.070664,71.299988 11.600871,64.776215 
	C14.426640,52.729038 32.135563,39.676037 44.863663,41.000000 
M39.998508,68.213402 
	C39.873135,62.948364 44.140144,57.741180 39.600071,51.387566 
	C37.414604,55.573189 35.237690,59.072632 33.717644,62.837292 
	C32.117664,66.799934 35.244991,69.721954 39.998508,68.213402 
M29.018963,87.023506 
	C28.262114,91.090492 27.505262,95.157478 26.519161,100.456375 
	C31.894611,98.252335 34.628433,95.994217 34.997520,91.625015 
	C35.351425,87.435570 31.896450,87.293442 29.018963,87.023506 
z"/>
<path fill="#000000" opacity="0" stroke="none" 
	d="
M39.987724,68.632278 
	C35.244991,69.721954 32.117664,66.799934 33.717644,62.837292 
	C35.237690,59.072632 37.414604,55.573189 39.600071,51.387566 
	C44.140144,57.741180 39.873135,62.948364 39.987724,68.632278 
z"/>
<path fill="#000000" opacity="0" stroke="none" 
	d="
M29.148750,86.644722 
	C31.896450,87.293442 35.351425,87.435570 34.997520,91.625015 
	C34.628433,95.994217 31.894611,98.252335 26.519161,100.456375 
	C27.505262,95.157478 28.262114,91.090492 29.148750,86.644722 
z"/>
</svg>